<svg width="24" height="24" viewBox="0 0 24 24" fill="none" xmlns="http://www.w3.org/2000/svg">
<path d="M22 3V21C22 21.2652 21.8946 21.5196 21.7071 21.7071C21.5196 21.8946 21.2652 22 21 22H15.8V14.255H18.4L18.79 11.237H15.8V9.309C15.8 8.435 16.042 7.84 17.3 7.84H18.9V5.14C18.1264 5.05785 17.3489 5.01813 16.571 5.021C16.0416 4.98155 15.5099 5.05852 15.0134 5.2465C14.5169 5.43447 14.0676 5.7289 13.697 6.10908C13.3265 6.48927 13.0437 6.94599 12.8685 7.44715C12.6933 7.94831 12.63 8.48176 12.683 9.01V11.237H10.076V14.255H12.683V22H3C2.73478 22 2.48043 21.8946 2.29289 21.7071C2.10536 21.5196 2 21.2652 2 21V3C2 2.73478 2.10536 2.48043 2.29289 2.29289C2.48043 2.10536 2.73478 2 3 2H21C21.2652 2 21.5196 2.10536 21.7071 2.29289C21.8946 2.48043 22 2.73478 22 3Z" fill="#63707D"/>
</svg>
