<svg width="24" height="24" viewBox="0 0 24 24" fill="none" xmlns="http://www.w3.org/2000/svg">
<path d="M22 12.2468C22.0006 14.3453 21.341 16.3907 20.1147 18.0935C18.8884 19.7964 17.1574 21.0702 15.167 21.7348C14.66 21.8348 14.48 21.5208 14.48 21.2538C14.48 20.9258 14.492 19.8468 14.492 18.5108C14.5174 18.1716 14.47 17.8308 14.3528 17.5114C14.2357 17.1919 14.0517 16.9013 13.813 16.6588C16.041 16.4108 18.379 15.5658 18.379 11.7238C18.3945 10.7305 18.0262 9.7695 17.351 9.04082C17.6562 8.17798 17.6204 7.23117 17.251 6.39382C17.251 6.39382 16.413 6.12482 14.504 7.41882C12.8651 6.97084 11.1359 6.97084 9.497 7.41882C7.587 6.12482 6.747 6.39382 6.747 6.39382C6.37847 7.23138 6.34272 8.17785 6.647 9.04082C5.97257 9.76993 5.6048 10.7307 5.62 11.7238C5.62 15.5558 7.954 16.4138 10.175 16.6658C9.81147 17.0209 9.58634 17.4938 9.54 17.9998C9.29475 18.1379 9.02453 18.226 8.745 18.259C8.46547 18.2919 8.18218 18.2691 7.91153 18.1918C7.64088 18.1145 7.38825 17.9843 7.16828 17.8087C6.9483 17.6331 6.76534 17.4156 6.63 17.1688C6.46984 16.8926 6.24879 16.6565 5.98367 16.4785C5.71854 16.3006 5.41633 16.1854 5.1 16.1418C5.1 16.1418 4.123 16.1288 5.031 16.7498C5.56342 17.0895 5.95678 17.6084 6.14 18.2128C6.14 18.2128 6.726 20.1568 9.508 19.5528C9.513 20.3878 9.522 21.0158 9.522 21.2528C9.522 21.5178 9.339 21.8268 8.839 21.7348C7.09238 21.1529 5.5403 20.1 4.35379 18.6924C3.16729 17.2847 2.39241 15.5768 2.11455 13.7568C1.83669 11.9369 2.06663 10.0756 2.77904 8.37797C3.49144 6.68037 4.65865 5.21237 6.15205 4.13575C7.64546 3.05913 9.40709 2.41567 11.2428 2.27627C13.0786 2.13687 14.9172 2.50695 16.556 3.34572C18.1949 4.1845 19.5704 5.45941 20.5309 7.02997C21.4915 8.60054 21.9999 10.4058 22 12.2468Z" fill="#63707D"/>
</svg>
