<svg width="24" height="24" viewBox="0 0 24 24" fill="none" xmlns="http://www.w3.org/2000/svg">
<path d="M12 6.865C10.9844 6.865 9.99159 7.16616 9.14715 7.7304C8.3027 8.29464 7.64453 9.09662 7.25588 10.0349C6.86722 10.9732 6.76553 12.0057 6.96367 13.0018C7.1618 13.9979 7.65086 14.9129 8.36901 15.631C9.08715 16.3491 10.0021 16.8382 10.9982 17.0363C11.9943 17.2345 13.0268 17.1328 13.9651 16.7441C14.9034 16.3555 15.7054 15.6973 16.2696 14.8529C16.8338 14.0084 17.135 13.0156 17.135 12C17.135 10.6381 16.594 9.33201 15.631 8.36901C14.668 7.40601 13.3619 6.865 12 6.865ZM12 15.334C11.3406 15.334 10.696 15.1385 10.1477 14.7721C9.59946 14.4058 9.17213 13.8851 8.91979 13.2759C8.66744 12.6667 8.60142 11.9963 8.73006 11.3496C8.8587 10.7028 9.17624 10.1088 9.64251 9.64251C10.1088 9.17624 10.7028 8.8587 11.3496 8.73006C11.9963 8.60142 12.6667 8.66744 13.2759 8.91979C13.8851 9.17213 14.4058 9.59946 14.7721 10.1477C15.1385 10.696 15.334 11.3406 15.334 12C15.334 12.8842 14.9827 13.7322 14.3575 14.3575C13.7322 14.9827 12.8842 15.334 12 15.334ZM18.539 6.662C18.539 6.89934 18.4686 7.13135 18.3368 7.32868C18.2049 7.52602 18.0175 7.67983 17.7982 7.77066C17.5789 7.86148 17.3377 7.88524 17.1049 7.83894C16.8721 7.79264 16.6583 7.67835 16.4905 7.51053C16.3226 7.34271 16.2084 7.12889 16.1621 6.89611C16.1158 6.66333 16.1395 6.42205 16.2303 6.20278C16.3212 5.98351 16.475 5.79609 16.6723 5.66424C16.8697 5.53238 17.1017 5.462 17.339 5.462C17.4966 5.462 17.6526 5.49304 17.7982 5.55334C17.9438 5.61365 18.0761 5.70204 18.1875 5.81347C18.299 5.9249 18.3873 6.05719 18.4477 6.20278C18.508 6.34837 18.539 6.50441 18.539 6.662ZM21.476 5.45C21.2244 4.78263 20.8306 4.17798 20.322 3.678C19.823 3.1694 19.2189 2.7759 18.552 2.525C17.7748 2.23377 16.9538 2.07687 16.124 2.061C15.058 2.012 14.717 2 12 2C9.283 2 8.943 2.011 7.876 2.061C7.04656 2.07713 6.22589 2.23403 5.449 2.525C4.78219 2.77607 4.17815 3.16955 3.679 3.678C3.16949 4.17726 2.77559 4.78212 2.525 5.45C2.23415 6.22692 2.07725 7.04758 2.061 7.877C2.011 8.943 2 9.284 2 12C2 14.716 2.011 15.057 2.061 16.123C2.07725 16.9524 2.23415 17.7731 2.525 18.55C2.77559 19.2179 3.16949 19.8227 3.679 20.322C4.17875 20.8302 4.78305 21.2236 5.45 21.475C6.22695 21.7658 7.04759 21.9227 7.877 21.939C8.944 21.988 9.285 22 12 22C14.715 22 15.057 21.989 16.123 21.939C16.9528 21.9228 17.7738 21.7659 18.551 21.475C19.2154 21.2181 19.8188 20.8252 20.3225 20.3215C20.8262 19.8178 21.2191 19.2144 21.476 18.55C21.7673 17.7732 21.9243 16.9525 21.94 16.123C21.989 15.056 22 14.716 22 12C22 9.284 21.989 8.943 21.94 7.877C21.9239 7.04756 21.767 6.22689 21.476 5.45ZM20.141 16.041C20.1351 16.6757 20.0197 17.3045 19.8 17.9C19.6337 18.3319 19.3787 18.7242 19.0515 19.0515C18.7242 19.3787 18.3319 19.6337 17.9 19.8C17.3052 20.02 16.6771 20.1363 16.043 20.144C14.989 20.192 14.672 20.202 12.001 20.202C9.33 20.202 9.015 20.192 7.961 20.144C7.32554 20.1368 6.69604 20.0204 6.1 19.8C5.66562 19.6397 5.27266 19.3841 4.95 19.052C4.6177 18.7295 4.36208 18.3365 4.202 17.902C3.981 17.3075 3.86462 16.6792 3.858 16.045C3.812 14.987 3.8 14.671 3.8 12C3.8 9.329 3.81 9.014 3.858 7.959C3.8665 7.32405 3.98387 6.69526 4.205 6.1C4.36532 5.66562 4.62091 5.27266 4.953 4.95C5.27398 4.61682 5.66607 4.36044 6.1 4.2C6.69569 3.98003 7.32501 3.86499 7.96 3.86C9.014 3.811 9.331 3.8 12 3.8C14.669 3.8 14.987 3.811 16.042 3.859C16.6763 3.8657 17.3047 3.98103 17.9 4.2C18.3319 4.36626 18.7242 4.62126 19.0515 4.94853C19.3787 5.2758 19.6337 5.66807 19.8 6.1C20.021 6.6945 20.1374 7.32278 20.144 7.957C20.19 9.014 20.2 9.33 20.2 12C20.2 14.67 20.19 14.986 20.141 16.041Z" fill="#63707D"/>
</svg>
