<svg width="24" height="24" viewBox="0 0 24 24" fill="none" xmlns="http://www.w3.org/2000/svg">
<path d="M6.97538 20.6669H3.11738V9.05885H6.97538V20.6669ZM5.07238 3.46185C4.79748 3.43923 4.52086 3.47341 4.25973 3.56226C3.9986 3.65111 3.75853 3.79272 3.55447 3.97831C3.3504 4.16389 3.1867 4.38947 3.07353 4.64102C2.96036 4.89257 2.90015 5.16471 2.89665 5.44052C2.89314 5.71633 2.94641 5.98991 3.05315 6.24426C3.15988 6.4986 3.3178 6.72827 3.51709 6.91898C3.71637 7.10969 3.95275 7.25736 4.21154 7.35282C4.47033 7.44828 4.74599 7.48947 5.02138 7.47385H5.04738C5.32368 7.4969 5.60177 7.46259 5.86418 7.37308C6.1266 7.28358 6.36768 7.1408 6.5723 6.95371C6.77693 6.76662 6.94067 6.53925 7.05327 6.28588C7.16586 6.03251 7.22488 5.75861 7.2266 5.48135C7.22833 5.2041 7.17274 4.92948 7.06331 4.67472C6.95388 4.41997 6.79298 4.19058 6.5907 4.00096C6.38843 3.81133 6.14914 3.66556 5.88786 3.57279C5.62658 3.48002 5.34895 3.44225 5.07238 3.46185ZM9.11138 20.6669H12.9694V14.1849C12.9545 13.8661 12.9975 13.5473 13.0964 13.2439C13.2407 12.8332 13.5084 12.4773 13.8629 12.2247C14.2173 11.9721 14.6412 11.8352 15.0764 11.8329C16.4764 11.8329 17.0314 12.8969 17.0314 14.4579V20.6669H20.8894V14.0108C20.8894 10.4458 18.9894 8.78585 16.4474 8.78585C15.7482 8.75662 15.0545 8.91958 14.4414 9.25703C13.8284 9.59447 13.3196 10.0935 12.9704 10.6999V9.05885H9.11138C9.16238 10.1479 9.11138 20.6679 9.11138 20.6679V20.6669Z" fill="#63707D"/>
</svg>
