<svg width="24" height="24" viewBox="0 0 24 24" fill="none" xmlns="http://www.w3.org/2000/svg">
<path d="M21 2H3C2.73478 2 2.48043 2.10536 2.29289 2.29289C2.10536 2.48043 2 2.73478 2 3V21C2 21.2652 2.10536 21.5196 2.29289 21.7071C2.48043 21.8946 2.73478 22 3 22H21C21.2652 22 21.5196 21.8946 21.7071 21.7071C21.8946 21.5196 22 21.2652 22 21V3C22 2.73478 21.8946 2.48043 21.7071 2.29289C21.5196 2.10536 21.2652 2 21 2ZM19.3 15.931C19.172 16.231 18.526 16.478 17.432 16.647C17.332 16.663 17.286 16.829 17.232 17.101C17.208 17.213 17.183 17.323 17.149 17.438C17.1397 17.4873 17.1123 17.5313 17.0721 17.5613C17.0319 17.5913 16.9819 17.6051 16.932 17.6H16.915C16.8104 17.5964 16.7063 17.5834 16.604 17.561C16.3343 17.5044 16.0596 17.4753 15.784 17.474C15.5856 17.4745 15.3876 17.4913 15.192 17.524C14.7792 17.6284 14.3954 17.8246 14.069 18.098C13.5171 18.5689 12.8238 18.842 12.099 18.874C12.057 18.874 12.018 18.874 11.987 18.874C11.956 18.874 11.939 18.874 11.914 18.874C11.1869 18.8446 10.4908 18.572 9.937 18.1C9.60988 17.8272 9.22582 17.631 8.813 17.526C8.61735 17.4933 8.41936 17.4765 8.221 17.476C7.94522 17.479 7.67046 17.5102 7.401 17.569C7.29881 17.5927 7.19475 17.6074 7.09 17.613C7.03722 17.6192 6.98403 17.6055 6.94078 17.5746C6.89753 17.5438 6.86731 17.4979 6.856 17.446C6.821 17.329 6.797 17.215 6.773 17.106C6.713 16.833 6.673 16.666 6.568 16.65C5.474 16.482 4.828 16.233 4.699 15.932C4.68619 15.9018 4.67842 15.8697 4.676 15.837C4.6737 15.7938 4.68742 15.7512 4.71454 15.7174C4.74166 15.6837 4.78028 15.6611 4.823 15.654C5.72917 15.4912 6.54599 15.0064 7.123 14.289C7.43857 13.9216 7.70019 13.5112 7.9 13.07V13.062C7.96137 12.9644 8.00037 12.8544 8.0142 12.74C8.02803 12.6255 8.01635 12.5094 7.98 12.4C7.839 12.068 7.373 11.92 7.064 11.822C6.987 11.798 6.914 11.775 6.857 11.752C6.583 11.644 6.133 11.415 6.193 11.1C6.23868 10.9812 6.32045 10.8796 6.42681 10.8097C6.53318 10.7397 6.65879 10.7049 6.786 10.71C6.84791 10.7086 6.90937 10.7209 6.966 10.746C7.19605 10.8653 7.44915 10.9335 7.708 10.946C7.862 10.9572 8.01462 10.9104 8.136 10.815C8.128 10.672 8.119 10.522 8.11 10.379C7.96969 9.39345 8.02989 8.38971 8.287 7.428C8.58902 6.73702 9.08794 6.15036 9.72145 5.7413C10.355 5.33224 11.095 5.11893 11.849 5.128H12.108H12.144C12.8989 5.11852 13.6399 5.3316 14.2744 5.74064C14.9089 6.14968 15.4089 6.73655 15.712 7.428C15.9688 8.39114 16.0286 9.39619 15.888 10.383V10.43C15.88 10.566 15.872 10.694 15.865 10.819C15.9751 10.9065 16.1124 10.9525 16.253 10.949C16.4972 10.929 16.7351 10.861 16.953 10.749C17.0251 10.7174 17.1032 10.7017 17.182 10.703C17.2714 10.7028 17.36 10.7198 17.443 10.753C17.5372 10.7753 17.6224 10.8254 17.6879 10.8967C17.7533 10.968 17.7958 11.0573 17.81 11.153C17.81 11.306 17.7 11.534 17.141 11.753C17.084 11.775 17.011 11.799 16.934 11.823C16.625 11.923 16.158 12.069 16.018 12.401C15.9816 12.5093 15.9694 12.6242 15.9822 12.7377C15.9949 12.8512 16.0324 12.9605 16.092 13.058V13.067C16.3717 13.7054 16.7951 14.2706 17.3292 14.7185C17.8633 15.1664 18.4936 15.4848 19.171 15.649C19.2137 15.6559 19.2524 15.6784 19.2794 15.7123C19.3064 15.7461 19.3198 15.7888 19.317 15.832C19.3178 15.8658 19.3121 15.8994 19.3 15.931Z" fill="#63707D"/>
</svg>
