<svg width="24" height="24" viewBox="0 0 24 24" fill="none" xmlns="http://www.w3.org/2000/svg">
<path d="M16.1144 9.29079C16.6664 8.73879 17.2144 7.45079 14.9144 9.01479C11.6464 11.2698 8.42541 13.3868 8.42541 13.3868C8.09385 13.5367 7.7354 13.6181 7.3716 13.626C7.00781 13.6339 6.64617 13.5682 6.30841 13.4328C4.92841 13.0188 3.31741 12.4668 3.31741 12.4668C3.31741 12.4668 2.21741 11.7758 4.10041 11.0398C4.10041 11.0398 12.0614 7.77279 14.8224 6.62179C15.8804 6.16179 19.4694 4.68979 19.4694 4.68979C19.4694 4.68979 21.1264 4.04479 20.9884 5.60979C20.9424 6.25379 20.5744 8.50979 20.2064 10.9478C19.6534 14.3988 19.0554 18.1728 19.0554 18.1728C19.0554 18.1728 18.9634 19.2308 18.1814 19.4148C17.3443 19.4006 16.5355 19.1094 15.8814 18.5868C15.6974 18.4488 12.4304 16.3778 11.2334 15.3658C11.1116 15.2833 11.0127 15.1714 10.9458 15.0404C10.879 14.9094 10.8463 14.7636 10.8509 14.6166C10.8555 14.4696 10.8972 14.3262 10.9721 14.1996C11.047 14.0731 11.1527 13.9675 11.2794 13.8928C12.9394 12.3748 14.9184 10.4878 16.1144 9.29079Z" fill="#63707D"/>
</svg>
