<svg width="24" height="24" viewBox="0 0 24 24" fill="none" xmlns="http://www.w3.org/2000/svg">
<path d="M19.643 6.44218C20.4563 6.34707 21.2508 6.13067 22 5.80018C21.4481 6.62505 20.754 7.34525 19.95 7.92718C19.959 8.10318 19.963 8.27918 19.963 8.45718C19.9731 9.99286 19.678 11.5153 19.0949 12.9359C18.5117 14.3566 17.6521 15.6473 16.566 16.7331C15.4799 17.8188 14.189 18.6779 12.7681 19.2606C11.3472 19.8432 9.82468 20.1378 8.289 20.1272C6.05911 20.129 3.87584 19.4888 2 18.2832C2.32491 18.3217 2.65181 18.3411 2.979 18.3412C4.82813 18.3452 6.62473 17.7263 8.079 16.5842C7.223 16.568 6.39348 16.2846 5.70641 15.7738C5.01934 15.263 4.50909 14.5502 4.247 13.7352C4.50188 13.7831 4.76066 13.8072 5.02 13.8072C5.38476 13.8078 5.74796 13.7597 6.1 13.6642C5.17075 13.4771 4.33486 12.9743 3.73424 12.241C3.13363 11.5076 2.8053 10.5891 2.805 9.64118V9.58918C3.37443 9.90623 4.01157 10.0821 4.663 10.1022C3.79446 9.52172 3.17976 8.63211 2.944 7.61441C2.70825 6.59671 2.86917 5.52742 3.394 4.62418C4.42405 5.89177 5.70921 6.92852 7.16602 7.66709C8.62283 8.40566 10.2187 8.82953 11.85 8.91118C11.7799 8.60446 11.7447 8.2908 11.745 7.97618C11.7423 7.15176 11.9882 6.34568 12.4506 5.66315C12.913 4.98062 13.5705 4.45334 14.3371 4.15014C15.1037 3.84694 15.944 3.7819 16.7482 3.96351C17.5523 4.14512 18.2831 4.56494 18.845 5.16818C19.7644 4.98623 20.6459 4.648 21.451 4.16818C21.1448 5.12078 20.5021 5.9292 19.643 6.44218Z" fill="#63707D"/>
</svg>
