<svg width="24" height="24" viewBox="0 0 24 24" fill="none" xmlns="http://www.w3.org/2000/svg">
<path d="M8.01592 12.271C7.43501 11.5342 7.08189 10.6437 6.99992 9.70901C6.99301 9.32331 7.06654 8.9404 7.21581 8.58469C7.36509 8.22898 7.58684 7.90828 7.86692 7.64301C7.94977 7.54855 8.05126 7.47225 8.16501 7.4189C8.27876 7.36555 8.40232 7.33631 8.52792 7.33301C8.69292 7.33301 8.85792 7.33301 9.00292 7.34201C9.14792 7.35101 9.35892 7.28401 9.55992 7.76701C9.76092 8.25001 10.2599 9.48201 10.3239 9.60601C10.3632 9.67076 10.3856 9.74432 10.3891 9.81997C10.3926 9.89561 10.377 9.97092 10.3439 10.039C10.2817 10.1881 10.1986 10.3275 10.0969 10.453C9.97292 10.597 9.83592 10.776 9.72492 10.886C9.61392 10.996 9.47192 11.144 9.61592 11.392C9.98998 12.0289 10.4564 12.6069 10.9999 13.107C11.5876 13.6291 12.2617 14.045 12.9919 14.336C13.2399 14.46 13.3849 14.436 13.5289 14.274C13.6729 14.112 14.1479 13.551 14.3129 13.303C14.4779 13.055 14.6439 13.097 14.8709 13.179C15.0979 13.261 16.3159 13.861 16.5629 13.985C16.8099 14.109 16.9759 14.171 17.0379 14.274C17.1058 14.6723 17.0558 15.0818 16.8939 15.452C16.7114 15.7528 16.4686 16.0127 16.1809 16.2152C15.8932 16.4178 15.5667 16.5586 15.2219 16.629C14.7009 16.7179 14.1663 16.6836 13.6609 16.529C13.1814 16.3803 12.7101 16.2064 12.2489 16.008C10.5379 15.1502 9.07923 13.8625 8.01592 12.271ZM2.04492 22L3.45092 16.864C2.36146 14.9734 1.92614 12.7763 2.21246 10.6131C2.49878 8.44997 3.49074 6.4417 5.03456 4.89968C6.57837 3.35766 8.58779 2.36803 10.7513 2.08423C12.9147 1.80042 15.1114 2.2383 17.0007 3.32996C18.89 4.42163 20.3664 6.10609 21.201 8.12221C22.0355 10.1383 22.1816 12.3734 21.6166 14.481C21.0516 16.5886 19.8071 18.451 18.076 19.7793C16.3449 21.1076 14.2239 21.8278 12.0419 21.828C10.3853 21.8283 8.75507 21.4137 7.29992 20.622L2.04492 22ZM3.79992 11.91C3.79746 13.4609 4.23395 14.9808 5.05892 16.294L5.25892 16.606L4.42692 19.646L7.54592 18.828L7.84592 19.006C9.11559 19.7581 10.5642 20.1546 12.0399 20.154C13.6695 20.154 15.2624 19.6708 16.6174 18.7656C17.9724 17.8604 19.0285 16.5737 19.6523 15.0682C20.2761 13.5628 20.4395 11.9062 20.1219 10.3079C19.8043 8.70965 19.0199 7.24141 17.8679 6.08887C16.7159 4.93632 15.2481 4.15123 13.6499 3.83283C12.0518 3.51444 10.3951 3.67705 8.88938 4.3001C7.38365 4.92315 6.09646 5.97867 5.19056 7.33321C4.28465 8.68774 3.80071 10.2805 3.79992 11.91Z" fill="#63707D"/>
</svg>
