<svg version="1.2" baseProfile="tiny-ps" xmlns="http://www.w3.org/2000/svg" viewBox="0 0 405 1525" width="405" height="1525">
	<title>2020 Annual Report-1-pdf-svg copy-svg</title>
	<defs>
		<clipPath clipPathUnits="userSpaceOnUse" id="cp1">
			<path d="M-5928.96 -2972.82L33299 -2972.82L33299 48159.84L-5928.96 48159.84L-5928.96 -2972.82Z" />
		</clipPath>
	</defs>
	<style>
		tspan { white-space:pre }
		.shp0 { fill: #2c2e35 } 
	</style>
	<g id="Clip-Path: Clip-Path: Page 1" clip-path="url(#cp1)">
		<g id="Clip-Path: Page 1">
			<g id="Page 1">
				<path id="Path 3" fill-rule="evenodd" class="shp0" d="M150.71 608.45L252.1 608.45L252.1 1525.38L150.71 1525.38L150.71 608.45ZM402.01 200.52C402.01 311.15 311.85 401 201.57 401C90.95 401 1.13 311.15 1.13 200.52C1.13 89.85 90.95 0 201.57 0C311.85 0 402.01 89.85 402.01 200.52ZM305.26 200.52C305.26 143.36 258.69 96.79 201.57 96.79C144.12 96.79 97.54 143.36 97.54 200.52C97.54 257.64 144.12 304.21 201.57 304.21C258.69 304.21 305.26 257.64 305.26 200.52Z" />
			</g>
		</g>
	</g>
</svg>