<svg width="10" height="11" viewBox="0 0 10 11" fill="none" xmlns="http://www.w3.org/2000/svg">
<path d="M8.92467 5.25188C8.78527 5.39373 8.59839 5.46567 8.4109 5.46731C8.19997 5.46915 8.01186 5.40048 7.87002 5.26108L5.3877 2.82172L5.45028 9.99332C5.45397 10.4152 5.10528 10.7464 4.70686 10.7498C4.33187 10.7531 3.95402 10.4283 3.95034 10.0064L3.88776 2.83481L1.42495 5.31733C1.14637 5.62446 0.654202 5.62875 0.370303 5.32653C0.0631731 5.04795 0.0588781 4.55578 0.3611 4.27189L4.07823 0.489304C4.35681 0.182174 4.84898 0.177879 5.13288 0.4801L8.91546 4.19723C9.22259 4.47581 9.22689 4.96798 8.92467 5.25188Z" fill="#16964C"/>
</svg>
