<svg width="11" height="11" viewBox="0 0 11 11" fill="none" xmlns="http://www.w3.org/2000/svg">
<path d="M9.82017 5.78718C9.68078 5.64534 9.4939 5.57339 9.30641 5.57175C9.09548 5.56991 8.90737 5.63859 8.76553 5.77798L6.28321 8.21735L6.34579 1.04574C6.34947 0.623886 6.00079 0.292706 5.60237 0.289229C5.22738 0.285956 4.84953 0.610796 4.84585 1.03266L4.78326 8.20426L2.32046 5.72173C2.04188 5.4146 1.54971 5.41031 1.26581 5.71253C0.958681 5.99111 0.954386 6.48328 1.25661 6.76718L4.97374 10.5498C5.25232 10.8569 5.74449 10.8612 6.02839 10.559L9.81097 6.84183C10.1181 6.56325 10.1224 6.07108 9.82017 5.78718Z" fill="#DB3F3F"/>
</svg>
